<?xml version="1.0" encoding="UTF-8"?>
<svg xmlns="http://www.w3.org/2000/svg" viewBox="0 0 920 920">
    <defs>
        <style>
            .cls-1 {
                fill:#020202;
            }
            .cls-1,.cls-2,.cls-3,.cls-4,.cls-5 {
                stroke-width:0px;
            }
            .cls-6 {
                stroke:#613c22;
                stroke-width:18px;
            }
            .cls-6,.cls-7,.cls-8 {
                stroke-miterlimit:10;
            }
            .cls-6,.cls-4 {
                fill:#855837;
            }
            .cls-2,.cls-7,.cls-5 {
                fill-rule:evenodd;
            }
            .cls-7 {
                fill:#b79f95;
                stroke:#020202;
                stroke-width:
                5px;
            }
            .cls-8{
                fill:none;
                stroke:#000;
                stroke-width:6px;
            }
            .cls-3{
                fill:#613c22;
            }
            .cls-5{
                fill:#5c3924;
            }
        </style>
    </defs>
    <g id="Layer_2">
        <path 
            class="cls-4" 
            d="M460,853.01c-80.69,0-156.54-30.95-213.58-87.15-57-56.16-88.39-130.82-88.39-210.23s31.39-154.07,88.39-210.23c57.04-56.2,132.89-87.15,213.58-87.15s156.54,30.95,213.58,87.15c57,56.16,88.39,130.82,88.39,210.23s-31.39,154.07-88.39,210.23c-57.04,56.2-132.89,87.15-213.58,87.15Z"
        />
        <path
            class="cls-3"
            d="M460,268.25c39.46,0,77.73,7.61,113.74,22.62,34.77,14.49,66,35.24,92.82,61.66,26.8,26.4,47.83,57.14,62.52,91.35,15.19,35.39,22.89,72.99,22.89,111.76s-7.7,76.37-22.89,111.76c-14.69,34.21-35.72,64.94-62.52,91.35-26.82,26.42-58.05,47.17-92.82,61.66-36.01,15.01-74.28,22.62-113.74,22.62s-77.73-7.61-113.74-22.62c-34.77-14.49-66-35.24-92.82-61.66-26.8-26.4-47.83-57.14-62.52-91.35-15.19-35.39-22.89-72.99-22.89-111.76s7.7-76.37,22.89-111.76c14.69-34.21,35.72-64.94,62.52-91.35,26.82-26.42,58.05-47.17,92.82-61.66,36.01-15.01,74.28-22.62,113.74-22.62M460,248.25c-172.3,0-311.97,137.62-311.97,307.38s139.67,307.38,311.97,307.38,311.97-137.62,311.97-307.38-139.67-307.38-311.97-307.38h0Z"
        />
    </g>
    <g id="Layer_3">
        <path 
            class="cls-2" 
            d="M470.66,56.99c229.81,0,328.82,129.34,377.95,272.32,9.78,30.75,15.84,62.99,16.16,98.03,1.3,141.97-20.83,167.23-24.24,175.71-31.01,77.23-122.03,161.99-148.4,158.47,38.73-47.05,40.22-54.26,60.36-103.34,16.64-40.54,17.76-84.01,17.7-92.79-.05-8.13-2.08-19.43-14.02-18.89s-19.13,29.47-19.13,29.47l-10.68-1.64c-1.96-.3-3.34-2.06-3.2-4.04.22-3.05-4.09-21.97-4.53-24.38-2.07-11.43-6.89-47.29-16.63-63.33-6.53-9.38-10.93-10.4-16.63-16.75-12.12-10.16-24.35-95.35-26.97-97.54-12-7.6-68.3-49.19-198.32-49.19h-.07c-97.22,0-175.99,37.79-187.99,45.39-2.61,2.2-15.45,79.19-27.56,89.35-5.7,6.36-4.57-7.13-18.89,13.9-10.51,14.44-29.45,90.22-30.3,96.59-.49,3.68-.85,11.34.4,13.08l-14.66,2.25s.18-32.26-11.76-32.79-16.04,8.91-18.18,16.75c-.97,3.55-.71,51.18,15.92,91.72,20.14,49.08,24.48,58.93,63.21,105.98-26.38,3.52-119.64-81.03-150.65-158.26-3.4-8.48-25.53-33.74-24.24-175.71.32-35.05,6.38-67.28,16.16-98.03C120.58,186.32,240.85,56.99,470.66,56.99h0Z"
        />
        <path
            class="cls-6"
            d="M758.72,588.52c-16.04,154.3-143.66,274.5-298.72,274.5s-282.68-120.2-298.72-274.49"
        />
        <line 
            class="cls-8" 
            x1="144.06" 
            y1="588.52" 
            x2="776.07" 
            y2="588.52"
        />
        <path
            class="cls-7" 
            d="M251.04,583.57c7.49-6.89,45.06-9.97,68.73-10.04s51.98-2.97,61.01,8.67c9.03,11.64,1.29,41.15-4.86,47.21s-28.77,9.62-58.57,9.62-38.71-1.42-49.86-7.11c-15.3-7.81-23.94-41.47-16.46-48.36Z"
        />
        <path
            class="cls-7"
            d="M655.65,583.57c-7.49-6.89-45.06-9.97-68.73-10.04s-51.98-2.97-61.01,8.67c-9.03,11.64-1.29,41.15,4.86,47.21,6.15,6.06,28.77,9.62,58.57,9.62,29.79,0,38.71-1.42,49.86-7.11,15.3-7.81,23.94-41.47,16.46-48.36Z"
        />
        <circle
            class="cls-1" 
            cx="319.77" 
            cy="589.51" 
            r="13.54"
        />
        <circle 
            class="cls-1" 
            cx="592.09" 
            cy="589.51" 
            r="13.54"
        />
        <path 
            class="cls-5" 
            d="M494.79,706.42c-6.42,3.09-24.71,6.18-34.72,6.18h-.07c-10.01,0-28.31-3.09-34.72-6.18,6.06,9.21,28.4,23.29,34.72,23.29,7.1,0,28.13-14.55,34.79-23.29Z"
        />
    </g>
</svg>