<?xml version="1.0" encoding="utf-8"?>
<!-- Generator: Adobe Illustrator 23.0.1, SVG Export Plug-In . SVG Version: 6.00 Build 0)  -->
<svg version="1.1" id="Layer_1" xmlns="http://www.w3.org/2000/svg" xmlns:xlink="http://www.w3.org/1999/xlink" x="0px" y="0px"
	 viewBox="0 0 800 800" enable-background="new 0 0 800 800" xml:space="preserve">
<circle fill="#FFFFFF" cx="397.5" cy="398.5" r="368.5"/>
<g>
	<g>
		<path d="M560.1,532.8c-1.9,3.4-2.8,7.9-2.8,13.4c0,9.4,3.4,16.4,10.2,20.9c6.8,4.5,16.8,6.7,29.9,6.7c20,0,34.5-2.9,43.6-8.7
			c9.1-5.8,13.7-14.3,13.7-25.5c0-7.2-2.3-12.3-6.8-15.2c-4.6-2.9-8.8-3.3-8.8-3.3c-6.5-0.6-17.2-1.1-23.8-1.1h-15.8
			c-6.5,0-15,0.1-18.8,0.3c0,0,0,0-3.6,0.6c-3.6,0.6-6.8,1.9-9.7,3.7C564.4,526.8,562,529.4,560.1,532.8z"/>
		<path d="M212.4,368.7c-2.7-5.9-6.3-10.4-10.8-13.5c-4.5-3.1-10.1-4.6-16.9-4.6c-5.7,0-10.5,1.5-14.6,4.6
			c-4.1,3.1-7.3,7.6-9.8,13.6c-2.5,6-4.3,13.4-5.5,22.1c-1.2,8.7-1.7,18.7-1.7,30.1c0,23.2,2.4,40.6,7.2,52.1
			c4.8,11.5,13,17.2,24.4,17.2c6.8,0,12.4-1.4,16.9-4.2c4.5-2.8,8.1-7.1,10.8-12.9c2.7-5.8,4.6-13,5.7-21.7c1.1-8.7,1.7-19,1.7-30.7
			c0-11.2-0.6-21.2-1.7-29.9C217,382,215.1,374.7,212.4,368.7z"/>
		<path d="M622.1,357.3c-1.8-3.7-4.2-6.5-7.2-8.6c-3-2.1-6.8-3.1-11.3-3.1c-4.4,0-8.2,1.1-11.2,3.2c-3,2.1-5.4,5.1-7.2,8.8
			c-1.8,3.8-3.1,8.3-3.9,13.5c-0.8,5.2-1.2,10.9-1.2,17.2c0,6,0.4,11.4,1.2,16.2c0.8,4.8,2.2,9,4.1,12.4c1.9,3.4,4.3,6.1,7.3,8
			c3,1.9,6.7,2.8,11.2,2.8c4.6,0,8.3-0.9,11.3-2.7s5.4-4.5,7.2-8c1.8-3.5,3-7.7,3.7-12.7c0.7-4.9,1.1-10.5,1.1-16.6
			c0-6.3-0.4-12.1-1.2-17.2C625.3,365.4,624,361,622.1,357.3z"/>
		<path d="M400,2C180.2,2,2,180.2,2,400s178.2,398,398,398s398-178.2,398-398S619.8,2,400,2z M487,511.6c-8.4-0.6-15.7-1.8-21.8-3.8
			c-6.1-2-11.4-5-15.8-9.1c-4.4-4.1-6.4-6.9-6.4-6.9c-3.8-5.3-9.8-14.2-13.3-19.8L412,444.3c-3.5-5.5-9.4-9.8-13.2-9.5
			c-3.8,0.3-6.8,5.9-6.8,12.4v13c0,6.5,0.4,15.8,0.8,20.7c0,0,0,0,1.6,2.9c1.6,2.9,3.6,5.1,6,6.7c2.4,1.6,5,2.6,7.9,3.1
			c2.9,0.5,2.9,0.5,2.9,0.5c2.8,0.1,6,0.2,7.1,0.2c1.1,0,2,4.1,2,9.1c0,5-5.4,9.1-11.9,9.1h-84.6c-0.5,0-1-0.1-1.5-0.1h-31.4
			c-0.5,0.1-1,0.1-1.5,0.1H247c-6.5,0-13.7-5-15.9-11.2l-1.5-4.2c-2.2-6.2-4.7-11.2-5.6-11.2s-4,4-7.1,8.8c0,0,0,0-3.3,3.7
			c-3.3,3.7-7.1,6.8-11.3,9.4c-4.3,2.6-9.1,4.6-14.4,6c-5.3,1.4-11.3,2.1-18,2.1c-11.1,0-21-1.9-29.6-5.6c-8.7-3.7-16-9.4-21.9-17.2
			c-5.9-7.7-10.4-17.5-13.5-29.4c-3.1-11.9-4.6-26-4.6-42.3c0-16.4,1.5-30.7,4.6-42.7c3.1-12,7.5-22,13.4-29.8
			c5.9-7.8,13.1-13.7,21.7-17.5c8.5-3.8,18.3-5.7,29.3-5.7c6.4,0,12.2,0.7,17.4,2.1c5.2,1.4,9.8,3.3,14,5.7
			c4.2,2.4,7.9,5.2,11.1,8.6c3.2,3.3,3.2,3.3,3.2,3.3c2.8,4.2,5.6,7.7,6.3,7.7c0.6,0,0.8-5.3,0.3-11.9c0,0,0-0.4-0.5-6
			c-0.1-2.3-0.3-4.7-0.4-7.2c-0.2-2.4-0.3-4.7-0.5-6.9c-0.2-2.2-0.3-4.1-0.3-5.7c-0.1-1.7-0.1-1.7-0.1-1.7c0-1.3,0-6.6,0-11.7
			c0-5.2-0.3-13.2-0.7-17.8c0,0,0,0-1.5-2.8s-3.5-5-6-6.4c-2.5-1.4-5.4-2.4-8.7-2.8c-3.3-0.4-3.3-0.4-3.3-0.4
			c-4-0.1-7.9-0.2-8.7-0.2s-1.3-4-1.3-9c0-4.9,5.4-9,11.9-9h58.3c6.5,0,11.9,5.4,11.9,11.9v193.4c0,6.5,0.3,16.1,0.8,21.3
			c0,0,0,0,1.6,3.1c1.6,3.1,3.6,5.5,6.2,7.2c2.6,1.7,5.6,2.8,9,3.3c3.4,0.6,3.4,0.6,3.4,0.6c0,0,0.1,0,0.1,0h28.6
			c0.2,0,0.8-0.1,2.7-0.5c2.8-0.5,5.4-1.5,7.8-3.1c2.4-1.6,4.4-3.8,6-6.7c1.6-2.9,1.6-2.9,1.6-2.9c0.4-4.8,0.8-14.1,0.8-20.7V303.9
			c0-6.5-0.4-15.6-0.8-20.1c0,0,0,0-1.6-2.7c-1.6-2.7-3.6-4.8-6.1-6.3c-2.4-1.5-5.1-2.5-7.9-2.9c-2.8-0.4-2.8-0.4-2.8-0.4
			c-2.8-0.1-6-0.2-7.1-0.2c-1.1,0-2-4-2-9c0-4.9,5.4-9,11.9-9h56.3c6.5,0,11.9,5.4,11.9,11.9v107.8c0,6.5,0,14.3,0.1,17.3
			c0,3,4,5.4,8.9,5.4s14.3,0,20.8,0h6c6.5,0,14.8,4.5,18.4,10l33.9,52.1c3.6,5.5,9.7,14.2,13.7,19.4c0,0,4.8,6.2,10.9,10.6
			c6.1,4.3,6.1,4.3,6.1,4.3c6.2,1.2,11.5,2.2,11.8,2.2c0.3,0,0.6,4.1,0.6,9.1c0,5-1.1,9.1-2.4,9.1s-7.8-0.1-14.3-0.1
			C506.4,512.3,495.4,512.1,487,511.6z M700.6,349.7c-1.8,1.8-4.3,3.2-7.5,4.2c-3.2,1.1-3.2,1.1-3.2,1.1c-4.7,0.3-8.7-1.4-8.9-3.9
			c0,0,0,0-0.7-1.8c-0.7-1.8-1.7-3.3-2.9-4.5c-1.2-1.2-2.6-2.1-4.2-2.7c-1.6-0.6-3.2-0.9-4.8-0.9c-1.9,0-3.9,0.4-6.1,1.2
			c-2.2,0.8-2.2,0.8-2.2,0.8c-1.6,0.9-0.9,4.2,1.6,7.2c0,0,0,0,2,3.3c2,3.3,3.7,6.8,5.2,10.6c1.5,3.8,2.7,7.7,3.6,11.7
			c0.9,4.1,1.3,8.2,1.3,12.4c0,8.6-1.4,16.5-4.1,23.7c-2.7,7.3-6.9,13.6-12.6,18.9c-5.7,5.3-12.8,9.5-21.5,12.5
			c-8.7,3-18.9,4.5-30.8,4.5c-1.2,0-2.8,0-4.7-0.1c-1.9-0.1-3.8-0.1-5.7-0.2c-1.9-0.1-3.7-0.2-5.4-0.3c-1.7-0.2-1.7-0.2-1.7-0.2
			c-1.2-0.1-3.5,0.5-5.1,1.5c0,0,0,0-1.5,1.2c-1.5,1.2-2.8,2.5-4,3.9c-1.2,1.4-2.1,3.1-2.8,4.8c-0.7,1.8-1.1,3.7-1.1,5.7
			c0,3.8,1.5,6.6,4.4,8.3c2.9,1.8,2.9,1.8,2.9,1.8c4.7,0.5,14,0.9,20.5,0.9h17.5c6.5,0,17.2,0.3,23.8,0.7c0,0,9.2,0.5,17.4,2.9
			c8.2,2.4,15,5.8,20.4,10.2c5.4,4.4,9.4,9.9,11.9,16.4c2.6,6.5,3.8,13.8,3.8,21.9c0,10.5-2,20-6,28.2c-4,8.3-10.1,15.3-18.2,21
			c-8.2,5.7-18.4,10.1-30.8,13.2c-12.4,3.1-27,4.6-43.9,4.6c-26.9,0-46.9-4-60-12.1c-13.2-8.1-19.7-19.9-19.7-35.4
			c0-12.2,3.9-21.6,11.8-28.1c7.9-6.5,22.6-9.3,22.6-9.3c6.4-1.2,8.9-3.5,5.5-5c0,0,0,0-3-1.8c-3-1.8-5.7-3.9-8-6.4
			c-2.3-2.5-4.2-5.4-5.7-8.6c-1.4-3.2-2.2-6.8-2.2-10.8c0-3.8,0.8-7.3,2.2-10.5c1.5-3.2,3.6-6.3,6.2-9.2c2.7-2.9,5.9-5.7,9.6-8.3
			c3.7-2.6,3.7-2.6,3.7-2.6c4.7-2.8,4.2-7-1.1-9.4c0,0,0,0-4.3-3.2c-4.3-3.2-7.9-7-11-11.4c-3.1-4.4-5.5-9.5-7.2-15.2
			c-1.8-5.7-2.7-11.9-2.7-18.8c0-20,5.8-35.5,17.4-46.6c11.6-11,29.6-16.6,53.9-16.6c8.1,0,15.6,1,22.6,3.1c6.9,2.1,7.3,2.3,7.3,2.3
			c5.9,2.8,12.5,3.3,14.7,1c0,0,0,0,2.3-2.3c2.3-2.3,4.9-4.4,7.7-6.2c2.9-1.9,6.1-3.4,9.7-4.7c3.6-1.2,7.5-1.8,11.8-1.8
			c4.1,0,7.7,0.5,10.7,1.6c3.1,1.1,5.6,2.5,7.7,4.2c2.1,1.8,3.6,3.8,4.7,6.2c1.1,2.3,1.6,4.8,1.6,7.5c0,2.6-0.4,5-1.2,7.4
			C703.7,345.8,702.4,347.9,700.6,349.7z"/>
	</g>
	<circle fill="#0094F9" cx="457.7" cy="342.3" r="33.8"/>
</g>
</svg>
